<?xml version="1.0" standalone="no"?>
<!DOCTYPE svg PUBLIC "-//W3C//DTD SVG 20010904//EN"
 "http://www.w3.org/TR/2001/REC-SVG-20010904/DTD/svg10.dtd">
<svg version="1.0" xmlns="http://www.w3.org/2000/svg"
 width="500.000000pt" height="500.000000pt" viewBox="0 0 500.000000 500.000000"
 preserveAspectRatio="xMidYMid meet">

<g transform="translate(0.000000,500.000000) scale(0.100000,-0.100000)"
fill="#000000" stroke="none">
<path d="M574 4621 c-86 -50 -217 -212 -304 -376 -23 -44 -49 -91 -56 -105 -8
-14 -14 -32 -14 -40 0 -8 -13 -34 -29 -57 -68 -101 -142 -355 -142 -494 0 -97
22 -149 97 -226 45 -48 54 -53 94 -53 39 0 49 5 90 48 26 27 105 137 176 244
71 107 135 204 142 214 14 22 15 30 -11 -136 -8 -52 -18 -158 -22 -235 -6
-128 -5 -145 14 -195 37 -96 92 -140 175 -140 44 0 53 4 87 40 26 27 45 61 59
106 39 127 22 135 -69 33 -36 -40 -70 -69 -79 -67 -8 2 -21 24 -29 51 -13 44
-12 66 7 210 40 306 53 360 152 602 11 28 32 66 47 85 46 58 63 98 51 119 -16
32 -61 61 -91 61 -39 0 -53 -17 -153 -180 -25 -41 -86 -133 -136 -205 -49 -71
-120 -175 -157 -230 -66 -98 -198 -246 -236 -267 -36 -19 -42 3 -28 108 7 53
18 108 24 121 8 18 8 29 0 42 -9 14 -7 37 8 97 23 93 64 212 91 263 23 43 23
45 -35 -134 -25 -77 -48 -158 -51 -180 -3 -22 -3 -31 0 -20 21 72 78 225 117
310 122 270 263 452 378 486 52 16 66 8 83 -52 9 -28 21 -58 27 -65 30 -36
109 5 109 56 0 61 -174 176 -281 186 -47 4 -61 1 -105 -25z m60 -1168 c-4 -21
-11 -49 -15 -63 l-7 -25 -1 25 c-1 41 11 100 21 100 5 0 6 -16 2 -37z"/>
<path d="M2153 4100 c-45 -20 -94 -77 -129 -151 -14 -27 -32 -52 -42 -55 -61
-19 -133 -79 -185 -153 -17 -25 -32 -40 -35 -33 -2 7 -9 12 -16 12 -11 0 -301
-369 -331 -421 -16 -27 -98 -89 -119 -89 -15 0 -17 5 -12 25 10 38 89 238 130
329 20 43 36 86 36 96 0 34 -36 52 -112 58 -118 8 -131 24 -77 105 36 55 33
82 -12 91 -64 12 -134 -44 -146 -118 -3 -21 1 -52 12 -80 20 -52 59 -76 124
-76 23 0 41 -2 41 -5 0 -3 -10 -25 -22 -48 -109 -214 -140 -342 -103 -422 18
-37 66 -75 95 -75 27 0 143 82 205 145 33 33 101 118 150 188 50 70 93 127 96
127 3 0 6 -22 6 -48 2 -132 125 -248 242 -227 48 8 165 88 191 130 11 18 31
40 44 48 13 9 45 47 70 85 25 38 51 74 58 79 7 6 37 13 67 17 30 4 66 9 80 12
l27 6 -8 -84 c-9 -109 2 -150 50 -183 20 -14 43 -25 52 -24 9 0 56 83 126 227
70 143 131 252 164 294 88 114 86 67 -7 -132 -14 -30 -30 -82 -35 -115 -5 -33
-11 -77 -14 -97 -5 -32 -2 -42 25 -69 29 -29 33 -30 54 -17 12 9 47 58 77 110
30 52 73 117 95 145 22 28 55 70 73 93 17 24 32 39 32 33 0 -14 -44 -128 -69
-180 -31 -63 -44 -137 -39 -229 4 -70 9 -89 32 -122 46 -66 105 -80 168 -37
36 25 127 135 207 253 23 35 45 62 47 59 3 -2 0 -24 -5 -48 -22 -95 -8 -193
34 -235 19 -19 35 -24 72 -24 47 0 50 2 118 74 39 40 97 116 129 169 33 53 61
95 63 93 2 -2 -6 -50 -17 -106 -14 -69 -19 -117 -14 -149 20 -141 102 -206
191 -152 35 22 120 121 168 196 67 105 159 291 152 309 -11 28 -26 10 -131
-148 -105 -158 -179 -246 -207 -246 -16 0 -19 7 -19 53 0 28 7 79 14 112 8 33
13 62 10 66 -5 9 27 99 60 169 32 69 33 94 1 125 -37 38 -85 34 -134 -11 l-40
-35 -21 49 c-49 113 -115 134 -214 68 -60 -39 -103 -91 -139 -164 -12 -23 -26
-41 -32 -38 -18 7 -46 -21 -170 -169 -130 -156 -159 -185 -182 -185 -13 0 -15
10 -10 68 4 49 16 92 47 162 77 173 98 260 77 320 -23 66 -97 72 -160 13 -43
-41 -123 -143 -163 -210 l-36 -58 7 40 c3 22 22 78 42 125 44 105 49 139 29
178 -31 61 -96 70 -144 22 -67 -66 -196 -278 -258 -422 -47 -111 -60 -80 -21
52 12 41 34 91 50 111 33 43 33 52 5 92 -25 38 -47 57 -64 57 -11 0 -71 -112
-87 -161 -5 -15 -119 -49 -163 -49 -18 0 -18 3 6 102 27 112 26 161 -4 213
-27 45 -85 90 -133 104 -23 7 -41 4 -70 -9z m116 -91 c20 -57 -39 -322 -75
-336 -8 -3 -35 -2 -60 2 -38 5 -48 11 -58 37 -16 36 -4 113 25 170 10 20 19
44 19 52 0 9 19 36 43 61 54 56 90 61 106 14z m1602 -160 c3 -8 13 -42 22 -76
l15 -63 -30 -46 c-44 -70 -136 -195 -171 -231 -48 -51 -61 -45 -54 27 8 74 36
158 91 276 53 112 105 159 127 113z m-1813 -183 c22 -14 56 -28 76 -31 20 -4
36 -13 36 -21 0 -27 -107 -170 -154 -205 -60 -46 -117 -64 -147 -48 -19 10
-21 17 -16 73 5 63 59 206 105 280 l24 38 19 -30 c10 -17 36 -42 57 -56z m799
-8 c-3 -8 -6 -5 -6 6 -1 11 2 17 5 13 3 -3 4 -12 1 -19z"/>
<path d="M4585 3990 c-35 -14 -93 -87 -101 -125 -3 -20 -3 -55 0 -78 4 -23 11
-76 16 -117 5 -41 15 -94 24 -118 8 -23 16 -59 18 -79 3 -35 1 -38 -78 -92
-123 -85 -168 -126 -198 -181 -22 -41 -26 -58 -21 -89 17 -99 84 -146 211
-146 72 0 86 3 130 30 53 33 107 104 124 163 5 20 10 88 10 150 l0 113 31 17
c18 9 80 49 140 87 l109 70 0 48 c0 26 -3 47 -6 47 -3 0 -23 -13 -43 -29 -44
-34 -231 -141 -248 -141 -14 0 -25 37 -50 170 -21 115 -21 175 1 199 24 26 21
77 -6 95 -25 18 -34 19 -63 6z m-29 -717 c-7 -58 -42 -138 -72 -164 -26 -22
-108 -43 -139 -35 -16 4 -25 13 -25 27 0 34 38 96 77 128 74 59 148 108 157
103 5 -3 6 -29 2 -59z"/>
<path d="M2500 3311 c-98 -31 -164 -105 -246 -276 -67 -142 -116 -263 -159
-395 -16 -47 -30 -89 -33 -93 -2 -5 -23 9 -46 31 -59 56 -86 72 -124 72 -98 0
-187 -114 -257 -328 -31 -95 -37 -124 -33 -177 3 -53 9 -71 34 -101 64 -79
119 -69 255 45 l94 78 6 -111 c6 -120 18 -158 65 -195 17 -13 41 -21 67 -21
36 0 46 6 106 68 36 37 99 117 140 177 104 153 224 298 284 344 15 12 15 8 -4
-35 -29 -65 -29 -145 -1 -200 44 -86 141 -143 222 -129 48 8 153 77 188 123
15 20 39 47 54 60 15 12 44 51 66 85 22 34 46 67 53 73 8 6 46 15 84 21 85 13
123 27 132 49 12 31 -11 35 -96 18 -45 -9 -85 -14 -88 -11 -3 4 2 35 12 69 11
36 19 98 19 143 1 70 -2 84 -24 113 -36 48 -107 92 -148 92 -19 0 -47 -8 -64
-17 -37 -22 -114 -123 -123 -161 -5 -23 -17 -33 -60 -51 -56 -23 -157 -119
-170 -161 -6 -20 -25 -28 -25 -10 0 6 -9 10 -19 10 -23 0 -118 -102 -210 -225
-283 -379 -264 -357 -287 -333 -20 20 -20 104 0 249 25 174 40 217 110 306 34
43 73 96 87 119 15 22 46 62 70 90 56 65 163 229 204 316 75 157 47 264 -75
282 -19 3 -46 1 -60 -3z m78 -93 c16 -16 15 -84 -2 -141 -7 -25 -36 -85 -64
-134 -64 -111 -272 -411 -272 -392 0 24 85 275 128 382 48 116 102 215 144
263 32 36 47 41 66 22z m613 -415 c13 -33 6 -92 -22 -205 -28 -113 -42 -138
-79 -138 -35 0 -82 17 -92 33 -31 48 32 244 97 305 44 41 81 43 96 5z m-1206
-270 c50 -51 57 -75 44 -151 -7 -37 -19 -83 -28 -103 -15 -35 -150 -164 -197
-189 -85 -46 -69 110 34 323 50 103 82 147 106 147 7 0 26 -12 41 -27z m983
-71 c16 -12 50 -27 76 -34 25 -7 46 -18 46 -24 0 -26 -105 -168 -152 -205 -52
-40 -114 -64 -143 -53 -29 11 -35 48 -19 111 16 63 85 226 110 262 l16 23 18
-30 c10 -16 31 -39 48 -50z"/>
<path d="M3220 2101 c-85 -27 -157 -99 -219 -222 -64 -124 -146 -325 -186
-454 -16 -49 -30 -92 -32 -94 -2 -3 -25 16 -51 41 -26 25 -57 51 -69 57 -30
15 -79 14 -112 -3 -32 -17 -97 -86 -113 -122 -12 -26 -23 -30 -33 -14 -3 6
-10 10 -15 10 -5 0 -84 -99 -176 -221 -92 -121 -185 -236 -207 -255 -41 -35
-77 -45 -77 -21 0 18 75 215 112 297 79 172 74 187 -76 200 -47 4 -81 12 -86
20 -10 17 3 52 36 96 30 39 26 60 -12 75 -38 14 -76 3 -106 -29 -50 -53 -58
-91 -36 -164 15 -50 47 -72 114 -78 l51 -5 -41 -91 c-105 -231 -117 -276 -98
-343 16 -53 55 -98 93 -106 26 -6 41 0 98 39 116 80 175 145 305 334 43 62 80
111 82 109 2 -2 -5 -30 -16 -63 -12 -32 -23 -85 -27 -116 -14 -137 80 -233
178 -183 37 19 111 77 172 134 l37 35 0 -99 c0 -84 4 -108 24 -151 29 -62 58
-84 109 -84 35 0 46 7 106 68 36 37 111 132 166 212 88 126 261 328 272 317 2
-3 -5 -38 -17 -78 -24 -90 -26 -188 -4 -232 29 -57 43 -67 97 -67 48 0 51 2
115 67 35 37 94 113 130 168 68 104 86 112 56 23 -27 -78 -25 -210 4 -265 56
-108 139 -111 230 -8 100 114 277 424 254 447 -16 16 -29 3 -100 -106 -131
-200 -202 -286 -235 -286 -18 0 -19 6 -14 73 12 144 25 202 66 293 22 51 41
101 41 113 0 35 -43 71 -85 71 -26 0 -45 -9 -74 -35 -21 -19 -40 -35 -43 -35
-2 0 -12 23 -23 50 -50 129 -135 137 -264 26 -26 -24 -85 -112 -95 -144 -6
-18 -10 -20 -26 -10 -14 9 -23 8 -44 -5 -35 -24 -151 -164 -272 -332 -56 -77
-120 -160 -143 -185 -39 -43 -41 -44 -56 -26 -20 26 -19 114 1 253 23 166 37
203 107 296 35 45 78 105 97 132 18 28 52 71 74 96 50 55 174 254 204 326 60
142 28 241 -83 256 -22 3 -51 2 -65 -2z m80 -96 c7 -8 12 -33 12 -55 -1 -83
-44 -173 -168 -357 -48 -70 -108 -159 -133 -196 -25 -38 -47 -64 -49 -59 -4
14 63 219 119 360 56 140 129 272 166 302 31 24 37 25 53 5z m417 -567 c5 -7
16 -46 23 -86 l13 -72 -46 -68 c-68 -98 -159 -214 -179 -226 -28 -17 -33 0
-21 77 17 118 118 348 163 373 31 17 35 17 47 2z m-1027 -98 c11 -6 31 -30 45
-54 25 -42 25 -47 15 -113 -17 -105 -33 -132 -126 -213 -94 -82 -115 -96 -138
-87 -37 15 -6 163 67 319 43 91 89 158 109 158 5 0 18 -5 28 -10z"/>
<path d="M1090 1508 c-68 -34 -140 -112 -181 -198 -62 -129 -74 -175 -74 -286
0 -95 2 -103 28 -137 26 -34 32 -37 78 -37 48 0 51 2 119 72 38 40 92 109 120
154 28 45 58 88 67 95 15 13 16 11 9 -11 -52 -183 -45 -289 23 -361 72 -75
141 -45 255 108 79 107 186 304 193 358 l6 40 -22 -20 c-12 -10 -51 -63 -85
-115 -89 -136 -171 -244 -203 -270 -26 -20 -28 -20 -40 -4 -16 21 -16 23 -2
99 5 33 14 86 19 117 4 31 27 98 49 148 23 51 41 100 41 109 0 9 -11 29 -25
44 -38 40 -84 37 -135 -9 -22 -20 -42 -35 -44 -33 -2 2 -15 29 -29 61 -40 88
-93 113 -167 76z m107 -70 c6 -7 13 -31 17 -53 3 -22 9 -54 12 -71 5 -27 -2
-44 -44 -105 -71 -104 -154 -210 -174 -223 -34 -21 -38 5 -19 99 18 84 88 264
126 321 14 21 44 41 66 43 4 1 11 -5 16 -11z"/>
</g>
</svg>
