<?xml version="1.0" standalone="no"?>
<!DOCTYPE svg PUBLIC "-//W3C//DTD SVG 20010904//EN"
 "http://www.w3.org/TR/2001/REC-SVG-20010904/DTD/svg10.dtd">
<svg version="1.0" xmlns="http://www.w3.org/2000/svg"
 width="980.000000pt" height="980.000000pt" viewBox="0 0 980.000000 980.000000"
 preserveAspectRatio="xMidYMid meet">

<g transform="translate(0.000000,980.000000) scale(0.100000,-0.100000)"
fill="#000000" stroke="none">
<path d="M4630 9793 c-1655 -95 -3152 -1024 -3984 -2472 -342 -594 -545 -1229
-623 -1941 -25 -231 -25 -729 0 -960 100 -921 416 -1728 962 -2455 1059 -1413
2789 -2147 4535 -1924 2128 271 3855 1930 4210 4044 52 311 64 460 64 815 0
356 -12 504 -65 819 -250 1497 -1213 2815 -2574 3527 -706 369 -1496 560
-2283 552 -103 -1 -212 -3 -242 -5z m760 -427 c1415 -167 2641 -959 3368
-2175 330 -553 527 -1138 609 -1811 25 -206 25 -754 0 -960 -128 -1054 -564
-1958 -1296 -2691 -730 -730 -1643 -1170 -2681 -1294 -185 -22 -606 -31 -800
-16 -465 36 -905 135 -1320 298 -1472 580 -2545 1901 -2799 3446 -48 290 -56
396 -56 737 0 341 8 447 56 737 326 1985 1996 3547 3989 3732 63 6 133 13 155
15 99 10 648 -3 775 -18z"/>
<path d="M2485 6926 c-22 -7 -51 -18 -64 -25 -45 -25 -113 -95 -139 -146 l-27
-50 0 -1805 0 -1805 27 -50 c32 -62 103 -129 166 -158 l47 -22 2405 0 2405 0
47 22 c63 29 134 96 166 158 l27 50 0 1805 0 1805 -27 50 c-32 62 -103 129
-166 158 l-47 22 -2390 2 c-1901 1 -2398 -1 -2430 -11z m4245 -400 c0 -2 -412
-396 -915 -875 l-915 -872 -842 802 c-464 441 -877 835 -918 875 l-75 74 1833
0 c1007 0 1832 -2 1832 -4z m-3138 -1066 c508 -481 1009 -960 1115 -1064 l193
-189 188 184 c232 228 2040 1943 2053 1947 5 2 9 -591 9 -1532 l0 -1536 -2250
0 -2250 0 0 1536 c0 966 4 1534 10 1532 5 -1 424 -397 932 -878z"/>
</g>
</svg>
